<svg xmlns="http://www.w3.org/2000/svg" xmlns:svg="http://www.w3.org/2000/svg" id="svg2" width="299.982" height="299.674" version="1.1" viewBox="0 0 299.982 299.674"><defs id="defs4"><filter id="filter4067" width="2" height="2" x="-.5" y="-.5" color-interpolation-filters="sRGB"><feFlood id="feFlood4069" flood-color="#000" flood-opacity="1" result="flood"/><feComposite id="feComposite4071" in="flood" in2="SourceGraphic" operator="in" result="composite1"/><feGaussianBlur id="feGaussianBlur4073" in="composite" result="blur" stdDeviation="6"/><feComponentTransfer id="feComponentTransfer13"><feFuncA id="feFuncA15" slope=".2" type="linear"/></feComponentTransfer><feOffset id="feOffset4075" dx="0" dy="6" result="offset" stdDeviation="8"/><feComposite id="feComposite4077" in="SourceGraphic" in2="offset" operator="over" result="composite2"/></filter><clipPath id="clipPath4266" clipPathUnits="userSpaceOnUse"><path id="path4268" fill="#000" fill-opacity="1" stroke="none" stroke-dasharray="none" stroke-dashoffset="0" stroke-linecap="butt" stroke-miterlimit="4" stroke-opacity="1" stroke-width="30" d="m 354.99922,92.361314 c -29.48241,0 -53.85,21.058586 -58.98632,49.011716 l -0.0234,-0.004 -19.10156,108.32813 a 24.999997,24.999997 0 0 0 20.27929,28.96094 24.999997,24.999997 0 0 0 22.00977,-6.94922 l 0.01,0.008 0.19141,-0.19336 44.16406,-44.16211 102.91407,0 44.16406,44.16211 0.1914,0.19336 0.0117,-0.008 a 24.999997,24.999997 0 0 0 22.00782,6.94922 24.999997,24.999997 0 0 0 20.27929,-28.96094 l -19.09961,-108.32813 -0.004,0 -0.0195,0.004 C 528.85138,113.4199 504.48183,92.361314 474.99941,92.361314 l -119.99804,0 -0.002,0 z" opacity="1"/></clipPath><clipPath id="clipPath4270" clipPathUnits="userSpaceOnUse"><path id="path4272" fill="#000" fill-opacity="1" stroke="none" stroke-dasharray="none" stroke-dashoffset="0" stroke-linecap="butt" stroke-miterlimit="4" stroke-opacity="1" stroke-width="30" d="m 354.99922,92.361314 c -29.48241,0 -53.85,21.058586 -58.98632,49.011716 l -0.0234,-0.004 -19.10156,108.32813 a 24.999997,24.999997 0 0 0 20.27929,28.96094 24.999997,24.999997 0 0 0 22.00977,-6.94922 l 0.01,0.008 0.19141,-0.19336 44.16406,-44.16211 102.91407,0 44.16406,44.16211 0.1914,0.19336 0.0117,-0.008 a 24.999997,24.999997 0 0 0 22.00782,6.94922 24.999997,24.999997 0 0 0 20.27929,-28.96094 l -19.09961,-108.32813 -0.004,0 -0.0195,0.004 C 528.85138,113.4199 504.48183,92.361314 474.99941,92.361314 l -119.99804,0 -0.002,0 z" opacity="1"/></clipPath><clipPath id="clipPath4274" clipPathUnits="userSpaceOnUse"><path id="path4276" fill="#000" fill-opacity="1" stroke="none" stroke-dasharray="none" stroke-dashoffset="0" stroke-linecap="butt" stroke-miterlimit="4" stroke-opacity="1" stroke-width="30" d="m 354.99922,92.361314 c -29.48241,0 -53.85,21.058586 -58.98632,49.011716 l -0.0234,-0.004 -19.10156,108.32813 a 24.999997,24.999997 0 0 0 20.27929,28.96094 24.999997,24.999997 0 0 0 22.00977,-6.94922 l 0.01,0.008 0.19141,-0.19336 44.16406,-44.16211 102.91407,0 44.16406,44.16211 0.1914,0.19336 0.0117,-0.008 a 24.999997,24.999997 0 0 0 22.00782,6.94922 24.999997,24.999997 0 0 0 20.27929,-28.96094 l -19.09961,-108.32813 -0.004,0 -0.0195,0.004 C 528.85138,113.4199 504.48183,92.361314 474.99941,92.361314 l -119.99804,0 -0.002,0 z" opacity="1"/></clipPath><clipPath id="clipPath4278" clipPathUnits="userSpaceOnUse"><path id="path4280" fill="#000" fill-opacity="1" stroke="none" stroke-dasharray="none" stroke-dashoffset="0" stroke-linecap="butt" stroke-miterlimit="4" stroke-opacity="1" stroke-width="30" d="m 354.99922,92.361314 c -29.48241,0 -53.85,21.058586 -58.98632,49.011716 l -0.0234,-0.004 -19.10156,108.32813 a 24.999997,24.999997 0 0 0 20.27929,28.96094 24.999997,24.999997 0 0 0 22.00977,-6.94922 l 0.01,0.008 0.19141,-0.19336 44.16406,-44.16211 102.91407,0 44.16406,44.16211 0.1914,0.19336 0.0117,-0.008 a 24.999997,24.999997 0 0 0 22.00782,6.94922 24.999997,24.999997 0 0 0 20.27929,-28.96094 l -19.09961,-108.32813 -0.004,0 -0.0195,0.004 C 528.85138,113.4199 504.48183,92.361314 474.99941,92.361314 l -119.99804,0 -0.002,0 z" opacity="1"/></clipPath><clipPath id="clipPath4282" clipPathUnits="userSpaceOnUse"><path id="path4284" fill="#000" fill-opacity="1" stroke="none" stroke-dasharray="none" stroke-dashoffset="0" stroke-linecap="butt" stroke-miterlimit="4" stroke-opacity="1" stroke-width="30" d="m 354.99922,92.361314 c -29.48241,0 -53.85,21.058586 -58.98632,49.011716 l -0.0234,-0.004 -19.10156,108.32813 a 24.999997,24.999997 0 0 0 20.27929,28.96094 24.999997,24.999997 0 0 0 22.00977,-6.94922 l 0.01,0.008 0.19141,-0.19336 44.16406,-44.16211 102.91407,0 44.16406,44.16211 0.1914,0.19336 0.0117,-0.008 a 24.999997,24.999997 0 0 0 22.00782,6.94922 24.999997,24.999997 0 0 0 20.27929,-28.96094 l -19.09961,-108.32813 -0.004,0 -0.0195,0.004 C 528.85138,113.4199 504.48183,92.361314 474.99941,92.361314 l -119.99804,0 -0.002,0 z" opacity="1"/></clipPath><clipPath id="clipPath4286" clipPathUnits="userSpaceOnUse"><path id="path4288" fill="#000" fill-opacity="1" stroke="none" stroke-dasharray="none" stroke-dashoffset="0" stroke-linecap="butt" stroke-miterlimit="4" stroke-opacity="1" stroke-width="30" d="m 354.99922,92.361314 c -29.48241,0 -53.85,21.058586 -58.98632,49.011716 l -0.0234,-0.004 -19.10156,108.32813 a 24.999997,24.999997 0 0 0 20.27929,28.96094 24.999997,24.999997 0 0 0 22.00977,-6.94922 l 0.01,0.008 0.19141,-0.19336 44.16406,-44.16211 102.91407,0 44.16406,44.16211 0.1914,0.19336 0.0117,-0.008 a 24.999997,24.999997 0 0 0 22.00782,6.94922 24.999997,24.999997 0 0 0 20.27929,-28.96094 l -19.09961,-108.32813 -0.004,0 -0.0195,0.004 C 528.85138,113.4199 504.48183,92.361314 474.99941,92.361314 l -119.99804,0 -0.002,0 z" opacity="1"/></clipPath><clipPath id="clipPath4290" clipPathUnits="userSpaceOnUse"><path id="path4292" fill="#000" fill-opacity="1" stroke="none" stroke-dasharray="none" stroke-dashoffset="0" stroke-linecap="butt" stroke-miterlimit="4" stroke-opacity="1" stroke-width="30" d="m 354.99922,92.361314 c -29.48241,0 -53.85,21.058586 -58.98632,49.011716 l -0.0234,-0.004 -19.10156,108.32813 a 24.999997,24.999997 0 0 0 20.27929,28.96094 24.999997,24.999997 0 0 0 22.00977,-6.94922 l 0.01,0.008 0.19141,-0.19336 44.16406,-44.16211 102.91407,0 44.16406,44.16211 0.1914,0.19336 0.0117,-0.008 a 24.999997,24.999997 0 0 0 22.00782,6.94922 24.999997,24.999997 0 0 0 20.27929,-28.96094 l -19.09961,-108.32813 -0.004,0 -0.0195,0.004 C 528.85138,113.4199 504.48183,92.361314 474.99941,92.361314 l -119.99804,0 -0.002,0 z" opacity="1"/></clipPath><clipPath id="clipPath4294" clipPathUnits="userSpaceOnUse"><path id="path4296" fill="#000" fill-opacity="1" stroke="none" stroke-dasharray="none" stroke-dashoffset="0" stroke-linecap="butt" stroke-miterlimit="4" stroke-opacity="1" stroke-width="30" d="m 354.99922,92.361314 c -29.48241,0 -53.85,21.058586 -58.98632,49.011716 l -0.0234,-0.004 -19.10156,108.32813 a 24.999997,24.999997 0 0 0 20.27929,28.96094 24.999997,24.999997 0 0 0 22.00977,-6.94922 l 0.01,0.008 0.19141,-0.19336 44.16406,-44.16211 102.91407,0 44.16406,44.16211 0.1914,0.19336 0.0117,-0.008 a 24.999997,24.999997 0 0 0 22.00782,6.94922 24.999997,24.999997 0 0 0 20.27929,-28.96094 l -19.09961,-108.32813 -0.004,0 -0.0195,0.004 C 528.85138,113.4199 504.48183,92.361314 474.99941,92.361314 l -119.99804,0 -0.002,0 z" opacity="1"/></clipPath></defs><metadata id="metadata7"/><g id="layer1" transform="translate(-265.00899,-35.861337)"><path id="rect4154" fill="#689f38" fill-opacity="1" stroke="none" stroke-dasharray="none" stroke-dashoffset="0" stroke-linecap="butt" stroke-miterlimit="4" stroke-opacity="1" stroke-width="30" d="m 534.00781,141.36914 -49.24023,8.68164 0.4082,2.31055 -190.17578,0 0,75 171.45703,0 44.16406,44.16211 0.19141,0.19336 0.01,-0.008 a 25,25 0 0 0 22.00976,6.94922 25,25 0 0 0 20.2793,-28.96093 L 534.01,141.36896 l -0.002,0 z" clip-path="url(#clipPath4294)" opacity="1"/><path id="rect4152" fill="#8bc34a" fill-opacity="1" stroke="none" stroke-dasharray="none" stroke-dashoffset="0" stroke-linecap="butt" stroke-miterlimit="4" stroke-opacity="1" stroke-width="30" d="m 355,92.361328 c -29.48242,0 -53.85001,21.058592 -58.98633,49.011722 l -0.0234,-0.004 -19.10156,108.32813 a 25,25 0 0 0 20.2793,28.96093 25,25 0 0 0 22.00976,-6.94922 l 0.008,0.008 0.1914,-0.19336 59.16407,-59.16211 96.45898,0 c 33.24,0 60,-26.76 60,-60 0,-33.24 -26.76,-60.000002 -60,-60.000002 l -120,0 z" clip-path="url(#clipPath4290)" opacity="1"/><g id="g4210" clip-path="url(#clipPath4286)"><path id="rect4147" fill="#fff" fill-opacity="1" stroke="none" stroke-dasharray="none" stroke-dashoffset="0" stroke-linecap="butt" stroke-miterlimit="4" stroke-opacity="1" stroke-width="30" d="m 349,122.36133 0,24 -24,0 0,16 24,0 0,24 16,0 0,-24 24,0 0,-16 -24,0 0,-24 -16,0 z" opacity="1"/><g id="g4204"><circle id="path4158" cx="478" cy="174.362" r="10" fill="#fff" fill-opacity="1" stroke="none" stroke-dasharray="none" stroke-dashoffset="0" stroke-linecap="butt" stroke-miterlimit="4" stroke-opacity="1" stroke-width="30" opacity="1"/><circle id="circle4164" cx="478" cy="132.362" r="10" fill="#fff" fill-opacity="1" stroke="none" stroke-dasharray="none" stroke-dashoffset="0" stroke-linecap="butt" stroke-miterlimit="4" stroke-opacity="1" stroke-width="30" opacity="1"/><circle id="circle4166" cx="458" cy="153.862" r="10" fill="#fff" fill-opacity="1" stroke="none" stroke-dasharray="none" stroke-dashoffset="0" stroke-linecap="butt" stroke-miterlimit="4" stroke-opacity="1" stroke-width="30" opacity="1"/><circle id="circle4168" cx="498" cy="153.862" r="10" fill="#fff" fill-opacity="1" stroke="none" stroke-dasharray="none" stroke-dashoffset="0" stroke-linecap="butt" stroke-miterlimit="4" stroke-opacity="1" stroke-width="30" opacity="1"/></g></g><path id="path4187" fill="none" fill-rule="evenodd" stroke="none" stroke-linecap="butt" stroke-linejoin="miter" stroke-opacity="1" stroke-width="1" d="m 281.78571,250.21935 13.75,-106.07143 L 390,205.75506 321.96429,272.18363 Z" clip-path="url(#clipPath4282)"/><path id="path4159" fill="#689f38" fill-opacity="1" stroke="none" stroke-dasharray="none" stroke-dashoffset="0" stroke-linecap="butt" stroke-miterlimit="4" stroke-opacity="1" stroke-width="30" d="m 534.00781,141.36914 -49.24023,8.68164 0.4082,2.31055 -190.17578,0 0,75 171.45703,0 44.16406,44.16211 0.19141,0.19336 0.01,-0.008 a 25,25 0 0 0 22.00976,6.94922 25,25 0 0 0 20.2793,-28.96093 L 534.01,141.36896 l -0.002,0 z" clip-path="url(#clipPath4278)" opacity="1"/><path id="path4161" fill="#8bc34a" fill-opacity="1" stroke="none" stroke-dasharray="none" stroke-dashoffset="0" stroke-linecap="butt" stroke-miterlimit="4" stroke-opacity="1" stroke-width="30" d="m 355,92.361328 c -29.48242,0 -53.85001,21.058592 -58.98633,49.011722 l -0.0234,-0.004 -19.10156,108.32813 a 25,25 0 0 0 20.2793,28.96093 25,25 0 0 0 22.00976,-6.94922 l 0.008,0.008 0.1914,-0.19336 59.16407,-59.16211 96.45898,0 c 33.24,0 60,-26.76 60,-60 0,-33.24 -26.76,-60.000002 -60,-60.000002 l -120,0 z" clip-path="url(#clipPath4274)" filter="url(#filter4067)" opacity="1"/><g id="g4163" clip-path="url(#clipPath4270)" filter="url(#filter4067)"><path id="path4165" fill="#fff" fill-opacity="1" stroke="none" stroke-dasharray="none" stroke-dashoffset="0" stroke-linecap="butt" stroke-miterlimit="4" stroke-opacity="1" stroke-width="30" d="m 349,122.36133 0,24 -24,0 0,16 24,0 0,24 16,0 0,-24 24,0 0,-16 -24,0 0,-24 -16,0 z" opacity="1"/><g id="g4167"><circle id="circle4169" cx="478" cy="174.362" r="10" fill="#fff" fill-opacity="1" stroke="none" stroke-dasharray="none" stroke-dashoffset="0" stroke-linecap="butt" stroke-miterlimit="4" stroke-opacity="1" stroke-width="30" opacity="1"/><circle id="circle4171" cx="478" cy="132.362" r="10" fill="#fff" fill-opacity="1" stroke="none" stroke-dasharray="none" stroke-dashoffset="0" stroke-linecap="butt" stroke-miterlimit="4" stroke-opacity="1" stroke-width="30" opacity="1"/><circle id="circle4173" cx="458" cy="153.862" r="10" fill="#fff" fill-opacity="1" stroke="none" stroke-dasharray="none" stroke-dashoffset="0" stroke-linecap="butt" stroke-miterlimit="4" stroke-opacity="1" stroke-width="30" opacity="1"/><circle id="circle4175" cx="498" cy="153.862" r="10" fill="#fff" fill-opacity="1" stroke="none" stroke-dasharray="none" stroke-dashoffset="0" stroke-linecap="butt" stroke-miterlimit="4" stroke-opacity="1" stroke-width="30" opacity="1"/></g></g><path id="path4177" fill="none" fill-rule="evenodd" stroke="none" stroke-linecap="butt" stroke-linejoin="miter" stroke-opacity="1" stroke-width="1" d="m 281.78571,250.21935 13.75,-106.07143 L 390,205.75506 321.96429,272.18363 Z" clip-path="url(#clipPath4266)"/></g></svg>